<?xml version="1.0" standalone="no"?>
<!DOCTYPE svg PUBLIC "-//W3C//DTD SVG 20010904//EN"
 "http://www.w3.org/TR/2001/REC-SVG-20010904/DTD/svg10.dtd">
<svg version="1.0" xmlns="http://www.w3.org/2000/svg"
 width="360.000000pt" height="360.000000pt" viewBox="0 0 360.000000 360.000000"
 preserveAspectRatio="xMidYMid meet">
<metadata>
Created by potrace 1.15, written by Peter Selinger 2001-2017
</metadata>
<g transform="translate(0.000000,360.000000) scale(0.100000,-0.100000)"
fill="#000000" stroke="none">
<path d="M1640 3549 c-285 -23 -576 -128 -830 -297 -141 -94 -343 -291 -443
-432 -81 -115 -195 -341 -237 -469 -93 -290 -111 -621 -48 -911 147 -679 677
-1206 1360 -1350 288 -61 624 -42 903 51 128 43 354 157 465 236 122 87 326
291 413 413 79 112 193 338 235 466 142 431 111 896 -84 1304 -89 185 -189
325 -339 475 -156 156 -273 241 -460 334 -214 107 -394 159 -625 180 -127 12
-169 12 -310 0z m-143 -219 c30 -18 39 -18 120 -8 120 14 374 4 491 -21 110
-23 235 -63 303 -96 34 -16 66 -23 104 -23 65 1 175 -48 242 -107 43 -36 108
-135 119 -179 3 -13 16 -29 30 -36 13 -8 24 -16 24 -20 0 -4 10 -18 23 -31 53
-58 217 -302 217 -324 0 -2 15 -37 34 -77 18 -40 39 -91 46 -113 6 -22 18 -62
26 -90 64 -220 70 -544 12 -765 -22 -87 -67 -220 -78 -235 -4 -5 -11 -21 -15
-35 -21 -74 -158 -282 -249 -380 -34 -35 -52 -58 -41 -50 11 8 4 -2 -15 -23
-19 -20 -40 -37 -46 -37 -6 0 -21 -12 -35 -26 -41 -45 -139 -116 -152 -111 -7
3 -19 40 -26 83 -37 230 -104 453 -182 609 -52 106 -134 225 -154 225 -19 0
-48 -37 -39 -51 4 -8 3 -10 -4 -5 -7 4 -31 -6 -54 -22 -154 -105 -345 -161
-559 -163 -142 -1 -233 14 -349 61 -54 21 -146 73 -165 94 -50 53 -49 53 -100
-29 l-48 -76 29 -30 c23 -24 26 -33 17 -47 -11 -17 -35 -20 -64 -8 -18 8 -29
-12 -70 -134 -31 -91 -83 -281 -94 -342 -8 -49 -25 -46 -90 17 -27 26 -41 42
-30 35 11 -8 -1 8 -26 36 -25 27 -61 69 -80 94 -38 48 -159 251 -159 266 0 5
-8 25 -19 44 -28 54 -78 215 -97 321 -26 134 -26 429 -1 559 68 347 259 681
502 875 28 22 61 53 75 69 13 16 40 36 60 45 19 9 53 28 76 43 54 35 190 102
236 117 20 7 40 21 43 31 7 23 54 70 80 81 36 14 99 10 132 -11z"/>
<path d="M2207 2023 c-4 -3 -7 -20 -7 -37 0 -17 -13 -59 -29 -92 -53 -112
-164 -171 -305 -162 -83 6 -142 32 -199 90 -67 67 -103 33 -45 -43 91 -119
286 -143 451 -56 105 55 167 151 167 259 0 45 -13 62 -33 41z"/>
</g>
</svg>
